<svg width="24" height="24" viewBox="0 0 24 24" fill="none" xmlns="http://www.w3.org/2000/svg">
<path d="M5.00001 13L16.17 13L11.29 17.88C10.9 18.27 10.9 18.91 11.29 19.3C11.3825 19.3927 11.4924 19.4662 11.6134 19.5164C11.7344 19.5666 11.864 19.5924 11.995 19.5924C12.126 19.5924 12.2557 19.5666 12.3766 19.5164C12.4976 19.4662 12.6075 19.3927 12.7 19.3L19.29 12.71C19.3827 12.6175 19.4563 12.5076 19.5064 12.3866C19.5566 12.2656 19.5825 12.136 19.5825 12.005C19.5825 11.874 19.5566 11.7443 19.5064 11.6234C19.4563 11.5024 19.3827 11.3925 19.29 11.3L12.7 4.70999C12.6074 4.61741 12.4975 4.54397 12.3766 4.49387C12.2556 4.44376 12.1259 4.41797 11.995 4.41797C11.8641 4.41797 11.7344 4.44376 11.6135 4.49387C11.4925 4.54397 11.3826 4.61741 11.29 4.70999C11.1974 4.80258 11.124 4.91249 11.0739 5.03345C11.0238 5.15442 10.998 5.28406 10.998 5.415C10.998 5.54593 11.0238 5.67557 11.0739 5.79654C11.124 5.9175 11.1974 6.02741 11.29 6.12L16.17 11L5.00001 11C4.45001 11 4.00001 11.45 4.00001 12C4.00001 12.55 4.45001 13 5.00001 13Z" fill="#39445C"/>
</svg>
