<svg width="24" height="25" viewBox="0 0 24 25" fill="none" xmlns="http://www.w3.org/2000/svg">
<path d="M3 10.303V14.4242C3 14.9909 3.45 15.4545 4 15.4545H7L10.29 18.8442C10.92 19.4933 12 19.0297 12 18.1127V6.60423C12 5.68726 10.92 5.22363 10.29 5.87272L7 9.27272H4C3.45 9.27272 3 9.73635 3 10.303ZM16.5 12.3636C16.4998 11.5004 16.2657 10.6543 15.824 9.92072C15.3823 9.18714 14.7506 8.59518 14 8.21151V16.5054C15.48 15.7533 16.5 14.1873 16.5 12.3636ZM14 4.58484V4.7909C14 5.18241 14.25 5.52241 14.6 5.66666C17.18 6.72787 19 9.33454 19 12.3636C19 15.3927 17.18 17.9994 14.6 19.0606C14.24 19.2048 14 19.5448 14 19.9364V20.1424C14 20.7915 14.63 21.2448 15.21 21.0182C18.6 19.6891 21 16.32 21 12.3636C21 8.40726 18.6 5.03817 15.21 3.70908C14.63 3.47211 14 3.93575 14 4.58484Z" fill="#E9FCFF"/>
</svg>
